<svg width="316" height="80" viewBox="0 0 316 80" fill="none" xmlns="http://www.w3.org/2000/svg">
<path d="M0 0.762946H10.8128L18.6221 46.485H17.7483L25.5576 0.762946H36.3704V79.2371H27.4143V23.1608L27.7966 23.2153L21.2434 66.3215H15.0724L8.51919 23.2153L8.90146 23.1608V79.2371H0V0.762946Z" fill="black"/>
<path d="M52.6237 80C50.767 80 49.0923 79.7457 47.5996 79.2371C46.1069 78.7284 44.7963 77.9655 43.6676 76.9482C42.5754 75.931 41.6653 74.6776 40.9371 73.188C40.0998 71.6258 39.4809 69.6821 39.0804 67.3569C38.6799 65.0318 38.4069 61.762 38.2612 57.5477C38.1156 53.297 38.0428 47.4478 38.0428 40C38.0428 38.8011 38.0428 37.911 38.0428 37.3297C38.0428 36.7484 38.0428 35.8583 38.0428 34.6594C38.0792 28.7738 38.1702 24.0509 38.3159 20.4905C38.4979 16.8937 38.7891 14.0781 39.1896 12.0436C39.5901 10.0091 40.1544 8.26522 40.8825 6.81199C41.6471 5.32243 42.5754 4.06903 43.6676 3.05177C44.7963 2.03451 46.1069 1.27157 47.5996 0.762946C49.0923 0.254315 50.767 0 52.6237 0C54.5169 0 56.2098 0.254315 57.7025 0.762946C59.1951 1.27157 60.4876 2.03451 61.5798 3.05177C62.7084 4.06903 63.6368 5.32243 64.3649 6.81199C65.2023 8.37421 65.8212 10.3179 66.2216 12.6431C66.6221 14.9682 66.877 18.2561 66.9862 22.5068C67.1318 26.7212 67.2046 32.5522 67.2046 40C67.2046 41.1989 67.2046 42.089 67.2046 42.6703C67.2046 43.2516 67.2046 44.1235 67.2046 45.2861C67.2046 51.208 67.1136 55.9673 66.9316 59.564C66.786 63.1244 66.5129 65.9219 66.1124 67.9564C65.712 69.9909 65.1294 71.7348 64.3649 73.188C63.6368 74.6776 62.7084 75.931 61.5798 76.9482C60.4876 77.9655 59.1951 78.7284 57.7025 79.2371C56.2098 79.7457 54.5169 80 52.6237 80ZM52.6783 71.3351C53.4429 71.3351 54.0982 71.208 54.6443 70.9537C55.2268 70.6994 55.7001 70.3179 56.0642 69.8093C56.4646 69.3006 56.7923 68.6467 57.0471 67.8474C57.3748 66.8665 57.6114 65.3224 57.7571 63.2153C57.9027 61.1081 57.9937 58.02 58.0301 53.951C58.0665 50.8265 58.0847 46.1762 58.0847 40C58.0847 36.4033 58.0665 33.2788 58.0301 30.6267C57.9937 24.9228 57.9027 20.7084 57.7571 17.9837C57.6114 15.2225 57.3748 13.2788 57.0471 12.1526C56.7923 11.3533 56.4646 10.6994 56.0642 10.1907C55.7001 9.68211 55.2268 9.30064 54.6443 9.04632C54.0982 8.79201 53.4429 8.66485 52.6783 8.66485C51.8774 8.66485 51.1856 8.79201 50.6031 9.04632C50.057 9.30064 49.5838 9.68211 49.1833 10.1907C48.8192 10.6994 48.5098 11.3533 48.2549 12.1526C47.9272 13.2425 47.6906 15.059 47.545 17.6022C47.3993 20.1453 47.2901 23.9055 47.2173 28.8828C47.2173 32.0073 47.2173 35.713 47.2173 40C47.2173 41.7075 47.2173 42.9791 47.2173 43.8147C47.2173 44.6503 47.2173 45.9037 47.2173 47.5749C47.2537 53.9328 47.3447 58.6013 47.4904 61.5804C47.636 64.5595 47.8908 66.6485 48.2549 67.8474C48.5098 68.6467 48.8192 69.3006 49.1833 69.8093C49.5838 70.3179 50.057 70.6994 50.6031 70.9537C51.1856 71.208 51.8774 71.3351 52.6783 71.3351Z" fill="black"/>
<path d="M68.9624 0.762946H78.4646L89.9873 51.5531L89.4412 51.6076V0.762946H98.4519V79.2371H88.9497L77.427 28.7193L77.9731 28.6104V79.2371H68.9624V0.762946Z" fill="black"/>
<path d="M114.76 80C112.903 80 111.228 79.7457 109.736 79.2371C108.243 78.7284 106.932 77.9655 105.804 76.9482C104.712 75.931 103.801 74.6776 103.073 73.188C102.236 71.6258 101.617 69.6821 101.217 67.3569C100.816 65.0318 100.543 61.762 100.397 57.5477C100.252 53.297 100.179 47.4478 100.179 40C100.179 38.8011 100.179 37.911 100.179 37.3297C100.179 36.7484 100.179 35.8583 100.179 34.6594C100.215 28.7738 100.306 24.0509 100.452 20.4905C100.634 16.8937 100.925 14.0781 101.326 12.0436C101.726 10.0091 102.291 8.26522 103.019 6.81199C103.783 5.32243 104.712 4.06903 105.804 3.05177C106.932 2.03451 108.243 1.27157 109.736 0.762946C111.228 0.254315 112.903 0 114.76 0C116.653 0 118.346 0.254315 119.839 0.762946C121.331 1.27157 122.624 2.03451 123.716 3.05177C124.845 4.06903 125.773 5.32243 126.501 6.81199C127.338 8.37421 127.957 10.3179 128.358 12.6431C128.758 14.9682 129.013 18.2561 129.122 22.5068C129.268 26.7212 129.341 32.5522 129.341 40C129.341 41.1989 129.341 42.089 129.341 42.6703C129.341 43.2516 129.341 44.1235 129.341 45.2861C129.341 51.208 129.25 55.9673 129.068 59.564C128.922 63.1244 128.649 65.9219 128.249 67.9564C127.848 69.9909 127.266 71.7348 126.501 73.188C125.773 74.6776 124.845 75.931 123.716 76.9482C122.624 77.9655 121.331 78.7284 119.839 79.2371C118.346 79.7457 116.653 80 114.76 80ZM114.814 71.3351C115.579 71.3351 116.234 71.208 116.78 70.9537C117.363 70.6994 117.836 70.3179 118.2 69.8093C118.601 69.3006 118.928 68.6467 119.183 67.8474C119.511 66.8665 119.748 65.3224 119.893 63.2153C120.039 61.1081 120.13 58.02 120.166 53.951C120.203 50.8265 120.221 46.1762 120.221 40C120.221 36.4033 120.203 33.2788 120.166 30.6267C120.13 24.9228 120.039 20.7084 119.893 17.9837C119.748 15.2225 119.511 13.2788 119.183 12.1526C118.928 11.3533 118.601 10.6994 118.2 10.1907C117.836 9.68211 117.363 9.30064 116.78 9.04632C116.234 8.79201 115.579 8.66485 114.814 8.66485C114.014 8.66485 113.322 8.79201 112.739 9.04632C112.193 9.30064 111.72 9.68211 111.319 10.1907C110.955 10.6994 110.646 11.3533 110.391 12.1526C110.063 13.2425 109.827 15.059 109.681 17.6022C109.535 20.1453 109.426 23.9055 109.353 28.8828C109.353 32.0073 109.353 35.713 109.353 40C109.353 41.7075 109.353 42.9791 109.353 43.8147C109.353 44.6503 109.353 45.9037 109.353 47.5749C109.39 53.9328 109.481 58.6013 109.626 61.5804C109.772 64.5595 110.027 66.6485 110.391 67.8474C110.646 68.6467 110.955 69.3006 111.319 69.8093C111.72 70.3179 112.193 70.6994 112.739 70.9537C113.322 71.208 114.014 71.3351 114.814 71.3351Z" fill="black"/>
<path d="M145.188 80C143.295 80 141.584 79.7457 140.055 79.2371C138.562 78.6921 137.269 77.911 136.177 76.8937C135.085 75.8401 134.175 74.5504 133.447 73.0245C132.646 71.535 132.045 69.6458 131.645 67.3569C131.281 65.0318 131.007 61.8347 130.825 57.7657C130.68 53.6603 130.607 47.7384 130.607 40C130.607 32.2616 130.68 26.3579 130.825 22.2888C131.007 18.1835 131.281 14.9864 131.645 12.6975C132.045 10.3724 132.628 8.46503 133.392 6.97548C134.157 5.48592 135.085 4.21435 136.177 3.16077C137.269 2.10718 138.562 1.32607 140.055 0.817444C141.584 0.272481 143.295 0 145.188 0C147.991 0 150.358 0.599455 152.287 1.79836C154.217 2.96095 155.764 4.70482 156.929 7.02998C157.803 8.70118 158.44 10.8265 158.84 13.406C159.277 15.9855 159.496 19.4914 159.496 23.9237H150.431C150.431 21.7439 150.394 19.9092 150.321 18.4196C150.248 16.9664 150.139 15.7493 149.994 14.7684C149.884 13.7511 149.721 12.8974 149.502 12.2071C149.102 11.0082 148.556 10.1181 147.864 9.53679C147.209 8.9555 146.298 8.66485 145.133 8.66485C144.369 8.66485 143.695 8.81017 143.113 9.10082C142.567 9.35513 142.093 9.7366 141.693 10.2452C141.329 10.7539 141.038 11.4078 140.819 12.2071C140.491 13.2607 140.255 15.0772 140.109 17.6567C139.964 20.1998 139.854 23.9782 139.782 28.9918C139.782 31.1717 139.782 32.9882 139.782 34.4414C139.782 35.8583 139.782 37.7112 139.782 40C139.782 46.3215 139.8 51.0627 139.836 54.2234C139.873 58.1108 139.964 61.1081 140.109 63.2153C140.255 65.3224 140.491 66.8483 140.819 67.7929C141.038 68.5922 141.329 69.2461 141.693 69.7548C142.093 70.2634 142.567 70.663 143.113 70.9537C143.695 71.208 144.369 71.3351 145.133 71.3351C145.898 71.3351 146.553 71.208 147.099 70.9537C147.682 70.6994 148.155 70.3179 148.519 69.8093C148.92 69.2643 149.247 68.5922 149.502 67.7929C149.684 67.1026 149.848 66.1762 149.994 65.0136C150.139 63.8147 150.23 62.198 150.267 60.1635C150.412 56.7121 150.485 51.7348 150.485 45.2316H144.751V36.6758H159.66C159.66 45.5404 159.587 52.2616 159.441 56.8392C159.332 61.4169 159.077 64.8865 158.677 67.248C158.313 69.5731 157.712 71.4986 156.875 73.0245C156.11 74.5504 155.182 75.8401 154.089 76.8937C152.997 77.911 151.705 78.6921 150.212 79.2371C148.756 79.7457 147.081 80 145.188 80Z" fill="black"/>
<path d="M161.313 0.762946H174.529C177.951 0.762946 180.645 1.45323 182.611 2.83379C184.577 4.21435 185.997 6.55768 186.871 9.86377C187.781 13.1335 188.236 17.8383 188.236 23.9782C188.236 30.1181 187.763 34.8229 186.816 38.0926C185.906 41.3624 184.45 43.7057 182.447 45.1226C180.481 46.5395 177.806 47.248 174.42 47.248H168.959V38.6376H174.42C175.548 38.6376 176.44 38.2561 177.096 37.4932C177.787 36.7302 178.297 35.3315 178.625 33.297C178.952 31.2262 179.116 28.1199 179.116 23.9782C179.116 19.8365 178.952 16.7484 178.625 14.7139C178.297 12.6794 177.787 11.2807 177.096 10.5177C176.404 9.75477 175.494 9.3733 174.365 9.3733H170.379V79.2371H161.313V0.762946ZM173.983 45.8311L182.447 43.3243L189.11 79.2371H179.717L173.983 45.8311Z" fill="black"/>
<path d="M197.331 0.762946H207.871L219.066 79.2371H209.673L201.645 8.55586H203.502L195.475 79.2371H186.136L197.331 0.762946ZM195.475 50.3542H209.072V58.8556H195.475V50.3542Z" fill="black"/>
<path d="M218.756 0.762946H231.426C234.957 0.762946 237.724 1.50772 239.727 2.99728C241.729 4.4505 243.167 6.90282 244.041 10.3542C244.915 13.7693 245.352 18.6739 245.352 25.0681C245.352 31.4986 244.915 36.4396 244.041 39.891C243.167 43.3061 241.711 45.7402 239.672 47.1935C237.67 48.6467 234.866 49.3733 231.262 49.3733H226.511V40.7629H231.371C232.573 40.7629 233.519 40.3451 234.211 39.5095C234.939 38.6376 235.467 37.1117 235.795 34.9319C236.122 32.7157 236.286 29.4278 236.286 25.0681C236.286 20.7084 236.122 17.4387 235.795 15.2589C235.467 13.079 234.939 11.5531 234.211 10.6812C233.483 9.80927 232.5 9.3733 231.262 9.3733H227.822V79.2371H218.756V0.762946Z" fill="black"/>
<path d="M264.557 0.762946H273.623V79.2371H264.557V0.762946ZM245.771 0.762946H254.837V79.2371H245.771V0.762946ZM253.034 34.1689H266.141V42.7793H253.034V34.1689Z" fill="black"/>
<path d="M275.773 0.762946H284.838V79.2371H275.773V0.762946Z" fill="black"/>
<path d="M291.753 46.812L306.225 0.762946H315.945L303.986 38.3106L301.911 37.2207L294.429 61.5804L291.753 46.812ZM287.002 0.762946H296.067V79.2371H287.002V0.762946ZM297.869 36.7302L305.351 28.9918L316 79.2371H306.334L297.869 36.7302Z" fill="black"/>
</svg>
